<?xml version="1.0" encoding="UTF-8"?>
<svg width="1024px" height="1024px" viewBox="0 0 1024 1024" version="1.1" xmlns="http://www.w3.org/2000/svg" xmlns:xlink="http://www.w3.org/1999/xlink">
    <title>Overlay</title>
    <defs>
        <path d="M262,0 L762,0 C906.698604,0 1024,117.301396 1024,262 L1024,762 C1024,906.698604 906.698604,1024 762,1024 L262,1024 C117.301396,1024 0,906.698604 0,762 L0,262 C0,117.301396 117.301396,0 262,0 Z" id="path-1"></path>
        <linearGradient x1="50%" y1="0%" x2="50%" y2="100%" id="linearGradient-2">
            <stop stop-color="color(display-p3 0.071 0.703 0.889)" offset="0%"></stop>
            <stop stop-color="color(display-p3 0.000 0.509 0.920)" offset="100%"></stop>
        </linearGradient>
    </defs>
    <g id="Overlay" stroke="none" fill="none" xlink:href="#path-1" fill-rule="evenodd">
        <path d="M577.735982,48 L737.276059,48 C789.934434,48 831.648416,57.9323404 866.52249,76.5831993 C901.396564,95.2340582 928.765942,122.603436 947.416801,157.47751 C966.06766,192.351584 976,234.065566 976,286.723941 L976,737.276059 C976,789.934434 966.06766,831.648416 947.416801,866.52249 C928.765942,901.396564 901.396564,928.765942 866.52249,947.416801 C831.648416,966.06766 789.934434,976 737.276059,976 L577.735982,976 C546.532826,976 535.217808,972.751104 523.8104,966.650355 C512.402993,960.549607 503.450393,951.597007 497.349645,940.1896 C491.248896,928.782192 488,917.467174 488,886.264018 L488,137.735982 C488,106.532826 491.248896,95.2178078 497.349645,83.8104004 C503.450393,72.402993 512.402993,63.4503929 523.8104,57.3496446 C535.217808,51.2488964 546.532826,48 577.735982,48 Z" fill="url(#linearGradient-2)"></path>
    </g>
</svg>